<?xml version="1.0" standalone="no"?>
<!DOCTYPE svg PUBLIC "-//W3C//DTD SVG 20010904//EN"
 "http://www.w3.org/TR/2001/REC-SVG-20010904/DTD/svg10.dtd">
<svg version="1.0" xmlns="http://www.w3.org/2000/svg"
 width="500.000000pt" height="203.000000pt" viewBox="0 0 500.000000 203.000000"
 preserveAspectRatio="xMidYMid meet">

<g transform="translate(0.000000,203.000000) scale(0.100000,-0.100000)"
fill="#000000" stroke="none">
<path d="M3080 1528 c-47 -11 -102 -25 -123 -30 -25 -6 -35 -13 -30 -21 4 -7
0 -7 -10 2 -14 11 -18 11 -23 -3 -4 -10 -18 -16 -39 -16 -19 0 -37 -4 -40 -10
-3 -5 -16 -10 -28 -10 l-22 -1 23 -18 c12 -11 17 -21 11 -23 -7 -2 -5 -24 7
-68 26 -95 27 -522 1 -628 -35 -146 -80 -226 -153 -268 -39 -23 -53 -26 -118
-22 -88 4 -138 33 -186 107 -72 114 -95 239 -95 518 1 134 -3 210 -9 206 -5
-4 -7 0 -4 9 4 10 0 14 -15 13 -16 -1 -26 -14 -40 -56 -10 -30 -23 -58 -28
-63 -5 -6 -9 -18 -9 -27 0 -9 -7 -20 -16 -23 -9 -4 -14 -9 -11 -12 3 -3 -3
-26 -14 -51 -10 -24 -19 -54 -19 -65 0 -11 -6 -32 -14 -46 -44 -82 -78 -256
-52 -266 6 -2 4 -6 -4 -8 -8 -3 -31 -10 -51 -17 -19 -6 -43 -11 -53 -11 -10 0
-24 -6 -32 -14 -7 -8 -18 -16 -24 -18 -6 -2 -3 -27 9 -68 78 -270 227 -431
458 -491 114 -30 328 -30 436 0 122 33 193 74 277 160 81 82 129 166 169 296
44 142 53 213 58 457 6 254 -3 370 -38 521 -24 101 -15 97 -149 65z m-201 -82
c-2 -2 -15 -9 -29 -16 -23 -12 -24 -12 -11 3 7 10 20 17 29 17 8 0 13 -2 11
-4z m74 -633 c-7 -2 -19 -2 -25 0 -7 3 -2 5 12 5 14 0 19 -2 13 -5z"/>
<path d="M3982 1450 c-6 -11 -161 -222 -342 -470 l-330 -450 0 -65 0 -65 465
0 465 0 0 -185 0 -185 220 0 220 0 0 84 0 84 -32 5 c-87 13 -306 49 -325 53
-27 5 -30 29 -8 70 8 16 15 39 15 52 0 13 5 33 11 44 13 25 46 171 65 293 8
50 17 189 20 311 l7 221 -34 24 c-19 13 -35 27 -37 31 -2 4 -11 8 -21 8 -9 0
-21 4 -26 9 -20 19 -203 108 -248 121 -26 7 -50 17 -53 21 -8 14 -18 11 -32
-11z m258 -440 l0 -230 -166 0 c-93 0 -164 4 -162 9 7 20 314 450 321 450 4 1
7 -102 7 -229z"/>
<path d="M1657 494 c-16 -9 -26 -21 -24 -28 3 -7 -5 -13 -20 -14 -31 -2 -45
-11 -38 -22 3 -5 0 -12 -6 -16 -8 -4 -9 -3 -5 4 10 17 -9 15 -23 -2 -10 -12 1
-14 69 -15 l80 -1 0 55 c0 30 -1 55 -2 55 -2 -1 -16 -8 -31 -16z"/>
<path d="M1350 40 c0 -5 7 -10 15 -10 8 0 15 5 15 10 0 6 -7 10 -15 10 -8 0
-15 -4 -15 -10z"/>
</g>
</svg>
